<mxfile host="app.diagrams.net" agent="Mozilla/5.0 (Macintosh; Intel Mac OS X 10_15_7) AppleWebKit/605.1.15 (KHTML, like Gecko) Version/18.3 Safari/605.1.15" version="26.0.16">
  <diagram name="Page-1" id="byPn3bS4noKjMmq-_EZk">
    <mxGraphModel dx="1006" dy="606" grid="1" gridSize="10" guides="1" tooltips="1" connect="1" arrows="1" fold="1" page="1" pageScale="1" pageWidth="827" pageHeight="1169" math="0" shadow="0">
      <root>
        <mxCell id="0" />
        <mxCell id="1" parent="0" />
        <mxCell id="KLxoHaG6yZA-iA64YiaN-1" value="Actor" style="shape=umlActor;verticalLabelPosition=bottom;verticalAlign=top;html=1;outlineConnect=0;" vertex="1" parent="1">
          <mxGeometry x="110" y="150" width="30" height="60" as="geometry" />
        </mxCell>
        <mxCell id="KLxoHaG6yZA-iA64YiaN-5" value="Vertical Container" style="swimlane;whiteSpace=wrap;html=1;" vertex="1" parent="1">
          <mxGeometry x="210" y="60" width="200" height="470" as="geometry" />
        </mxCell>
        <mxCell id="KLxoHaG6yZA-iA64YiaN-2" value="POD Status" style="rounded=0;whiteSpace=wrap;html=1;" vertex="1" parent="KLxoHaG6yZA-iA64YiaN-5">
          <mxGeometry x="40" y="40" width="120" height="60" as="geometry" />
        </mxCell>
        <mxCell id="KLxoHaG6yZA-iA64YiaN-6" value="ENV 1 - Dev" style="shape=process;whiteSpace=wrap;html=1;backgroundOutline=1;" vertex="1" parent="KLxoHaG6yZA-iA64YiaN-5">
          <mxGeometry x="40" y="160" width="120" height="60" as="geometry" />
        </mxCell>
        <mxCell id="KLxoHaG6yZA-iA64YiaN-7" value="ENV 2 - UAT" style="shape=process;whiteSpace=wrap;html=1;backgroundOutline=1;" vertex="1" parent="KLxoHaG6yZA-iA64YiaN-5">
          <mxGeometry x="40" y="250" width="120" height="60" as="geometry" />
        </mxCell>
        <mxCell id="KLxoHaG6yZA-iA64YiaN-8" value="ENV 3 - Demo" style="shape=process;whiteSpace=wrap;html=1;backgroundOutline=1;" vertex="1" parent="KLxoHaG6yZA-iA64YiaN-5">
          <mxGeometry x="40" y="340" width="120" height="60" as="geometry" />
        </mxCell>
        <mxCell id="KLxoHaG6yZA-iA64YiaN-9" value="Vertical Container" style="swimlane;whiteSpace=wrap;html=1;" vertex="1" parent="1">
          <mxGeometry x="214" y="550" width="236" height="630" as="geometry" />
        </mxCell>
        <mxCell id="KLxoHaG6yZA-iA64YiaN-10" value="POD Status" style="rounded=0;whiteSpace=wrap;html=1;" vertex="1" parent="KLxoHaG6yZA-iA64YiaN-9">
          <mxGeometry x="40" y="40" width="120" height="60" as="geometry" />
        </mxCell>
        <mxCell id="KLxoHaG6yZA-iA64YiaN-11" value="ENV 1 - Dev" style="shape=process;whiteSpace=wrap;html=1;backgroundOutline=1;fillColor=#fff2cc;strokeColor=#d6b656;" vertex="1" parent="KLxoHaG6yZA-iA64YiaN-9">
          <mxGeometry x="40" y="160" width="120" height="60" as="geometry" />
        </mxCell>
        <mxCell id="KLxoHaG6yZA-iA64YiaN-12" value="ENV 2 - UAT" style="shape=process;whiteSpace=wrap;html=1;backgroundOutline=1;fillColor=#d5e8d4;strokeColor=#82b366;" vertex="1" parent="KLxoHaG6yZA-iA64YiaN-9">
          <mxGeometry x="40" y="460" width="120" height="60" as="geometry" />
        </mxCell>
        <mxCell id="KLxoHaG6yZA-iA64YiaN-13" value="ENV 3 - Demo" style="shape=process;whiteSpace=wrap;html=1;backgroundOutline=1;fillColor=#f8cecc;strokeColor=#b85450;" vertex="1" parent="KLxoHaG6yZA-iA64YiaN-9">
          <mxGeometry x="40" y="540" width="120" height="60" as="geometry" />
        </mxCell>
        <mxCell id="KLxoHaG6yZA-iA64YiaN-14" value="NS1" style="shape=process;whiteSpace=wrap;html=1;backgroundOutline=1;fillColor=#d5e8d4;strokeColor=#82b366;" vertex="1" parent="KLxoHaG6yZA-iA64YiaN-9">
          <mxGeometry x="80" y="240" width="120" height="60" as="geometry" />
        </mxCell>
        <mxCell id="KLxoHaG6yZA-iA64YiaN-15" value="NS2" style="shape=process;whiteSpace=wrap;html=1;backgroundOutline=1;fillColor=#d5e8d4;strokeColor=#82b366;" vertex="1" parent="KLxoHaG6yZA-iA64YiaN-9">
          <mxGeometry x="80" y="310" width="120" height="60" as="geometry" />
        </mxCell>
        <mxCell id="KLxoHaG6yZA-iA64YiaN-16" value="NS3" style="shape=process;whiteSpace=wrap;html=1;backgroundOutline=1;fillColor=#fff2cc;strokeColor=#d6b656;" vertex="1" parent="KLxoHaG6yZA-iA64YiaN-9">
          <mxGeometry x="80" y="380" width="120" height="60" as="geometry" />
        </mxCell>
        <mxCell id="KLxoHaG6yZA-iA64YiaN-22" value="Vertical Container" style="swimlane;whiteSpace=wrap;html=1;" vertex="1" parent="1">
          <mxGeometry x="420" y="60" width="200" height="470" as="geometry" />
        </mxCell>
        <mxCell id="KLxoHaG6yZA-iA64YiaN-3" value="Quality Status" style="rounded=0;whiteSpace=wrap;html=1;" vertex="1" parent="KLxoHaG6yZA-iA64YiaN-22">
          <mxGeometry x="40" y="40" width="120" height="60" as="geometry" />
        </mxCell>
        <mxCell id="KLxoHaG6yZA-iA64YiaN-23" value="Q1" style="shape=process;whiteSpace=wrap;html=1;backgroundOutline=1;" vertex="1" parent="KLxoHaG6yZA-iA64YiaN-22">
          <mxGeometry x="40" y="160" width="120" height="60" as="geometry" />
        </mxCell>
        <mxCell id="KLxoHaG6yZA-iA64YiaN-24" value="Q2" style="shape=process;whiteSpace=wrap;html=1;backgroundOutline=1;" vertex="1" parent="KLxoHaG6yZA-iA64YiaN-22">
          <mxGeometry x="40" y="250" width="120" height="60" as="geometry" />
        </mxCell>
        <mxCell id="KLxoHaG6yZA-iA64YiaN-25" value="FBP Collection" style="swimlane;whiteSpace=wrap;html=1;" vertex="1" parent="1">
          <mxGeometry x="180" y="20" width="670" height="520" as="geometry" />
        </mxCell>
        <mxCell id="KLxoHaG6yZA-iA64YiaN-26" value="Vertical Container" style="swimlane;whiteSpace=wrap;html=1;" vertex="1" parent="KLxoHaG6yZA-iA64YiaN-25">
          <mxGeometry x="460" y="40" width="200" height="470" as="geometry" />
        </mxCell>
        <mxCell id="KLxoHaG6yZA-iA64YiaN-4" value="Delivery Status" style="rounded=0;whiteSpace=wrap;html=1;" vertex="1" parent="KLxoHaG6yZA-iA64YiaN-26">
          <mxGeometry x="40" y="40" width="120" height="60" as="geometry" />
        </mxCell>
        <mxCell id="KLxoHaG6yZA-iA64YiaN-27" value="P-R" style="shape=process;whiteSpace=wrap;html=1;backgroundOutline=1;" vertex="1" parent="KLxoHaG6yZA-iA64YiaN-26">
          <mxGeometry x="40" y="150" width="120" height="60" as="geometry" />
        </mxCell>
        <mxCell id="KLxoHaG6yZA-iA64YiaN-28" value="JIRA" style="shape=process;whiteSpace=wrap;html=1;backgroundOutline=1;" vertex="1" parent="KLxoHaG6yZA-iA64YiaN-26">
          <mxGeometry x="40" y="240" width="120" height="60" as="geometry" />
        </mxCell>
      </root>
    </mxGraphModel>
  </diagram>
</mxfile>
